Coordinates
version=1
nRows=17
nColumns=24
inDegrees=yes

Units are S.I. units (second, meters, Newtons, ...)
Angles are in degrees.

endheader
time	pelvis_tilt	pelvis_list	pelvis_rotation	pelvis_tx	pelvis_ty	pelvis_tz	hip_flexion_r	hip_adduction_r	hip_rotation_r	knee_angle_r	ankle_angle_r	subtalar_angle_r	mtp_angle_r	hip_flexion_l	hip_adduction_l	hip_rotation_l	knee_angle_l	ankle_angle_l	subtalar_angle_l	mtp_angle_l	lumbar_extension	lumbar_bending	lumbar_rotation
      4.40000000	     94.45271853	     20.73464390	    -93.76522302	      0.35928590	      0.29017987	      1.01822963	     -0.75236017	    -14.05060234	      0.36151662	    -53.15347158	    -34.17260162	     -1.74545602	    -25.17324631	     -9.11278237	    -15.76609756	    -10.15603976	    -59.54273010	    -24.63420803	     -0.14557499	     73.45799169	      0.00000000	      0.00000000	      0.00000000
      4.41000000	     94.44627027	     20.74474017	    -93.76455540	      0.35930386	      0.29019319	      1.01822612	     -0.74471355	    -14.03881765	      0.35842512	    -53.12462809	    -34.13613602	     -1.74545602	    -25.17324631	     -9.10563702	    -15.76892984	    -10.15854481	    -59.54609491	    -24.62904480	     -0.14557499	     73.45799169	      0.00000000	      0.00000000	      0.00000000
      4.42000000	     94.44252762	     20.75127688	    -93.76363785	      0.35930449	      0.29019485	      1.01821473	     -0.73775646	    -14.02813496	      0.35609651	    -53.09925477	    -34.10194938	     -1.74545602	    -25.17324631	     -9.09916593	    -15.77033505	    -10.15971111	    -59.54772182	    -24.62616931	     -0.14557499	     73.45799169	      0.00000000	      0.00000000	      0.00000000
      4.43000000	     94.44129281	     20.75452829	    -93.76188680	      0.35929326	      0.29019036	      1.01820030	     -0.73192015	    -14.01918304	      0.35501894	    -53.07607968	    -34.07161704	     -1.74545602	    -25.17324631	     -9.09289666	    -15.77045905	    -10.15928089	    -59.54836778	    -24.62576221	     -0.14557499	     73.45799169	      0.00000000	      0.00000000	      0.00000000
      4.44000000	     94.44126340	     20.75607724	    -93.75951123	      0.35928042	      0.29018946	      1.01818948	     -0.72746110	    -14.01199374	      0.35510778	    -53.05349171	    -34.04565805	     -1.74545602	    -25.17324631	     -9.08669409	    -15.76960380	    -10.15747007	    -59.54909895	    -24.62730945	     -0.14557499	     73.45799169	      0.00000000	      0.00000000	      0.00000000
      4.45000000	     94.44096042	     20.75780769	    -93.75729334	      0.35927178	      0.29019685	      1.01818341	     -0.72428102	    -14.00609477	      0.35579440	    -53.03013016	    -34.02434341	     -1.74545602	    -25.17324631	     -9.08042088	    -15.76823324	    -10.15486785	    -59.55079949	    -24.62980246	     -0.14557499	     73.45799169	      0.00000000	      0.00000000	      0.00000000
      4.46000000	     94.43937706	     20.76101236	    -93.75591769	      0.35926960	      0.29020855	      1.01817608	     -0.72191693	    -14.00095436	      0.35646987	    -53.00541118	    -34.00804394	     -1.74545602	    -25.17324631	     -9.07377356	    -15.76690452	    -10.15222208	    -59.55383597	    -24.63211058	     -0.14557499	     73.45799169	      0.00000000	      0.00000000	      0.00000000
      4.47000000	     94.43627888	     20.76593000	    -93.75553462	      0.35927549	      0.29022046	      1.01816479	     -0.71966177	    -13.99626913	      0.35678475	    -52.97983901	    -33.99718349	     -1.74545602	    -25.17324631	     -9.06636739	    -15.76612047	    -10.15016718	    -59.55799233	    -24.63334873	     -0.14557499	     73.45799169	      0.00000000	      0.00000000	      0.00000000
      4.48000000	     94.43223827	     20.77180718	    -93.75582310	      0.35928480	      0.29023339	      1.01815558	     -0.71678946	    -13.99195246	      0.35660699	    -52.95492671	    -33.99200104	     -1.74545602	    -25.17324631	     -9.05797182	    -15.76618563	    -10.14899380	    -59.56264776	    -24.63309669	     -0.14557499	     73.45799169	      0.00000000	      0.00000000	      0.00000000
      4.49000000	     94.42825601	     20.77750232	    -93.75627431	      0.35928894	      0.29024575	      1.01815152	     -0.71287373	    -13.98808378	      0.35585406	    -52.93272975	    -33.99230954	     -1.74545602	    -25.17324631	     -9.04879565	    -15.76709282	    -10.14859427	    -59.56709139	    -24.63143285	     -0.14557499	     73.45799169	      0.00000000	      0.00000000	      0.00000000
      4.50000000	     94.42521823	     20.78215274	    -93.75644938	      0.35928497	      0.29025177	      1.01814684	     -0.70795802	    -13.98477311	      0.35433259	    -52.91526100	    -33.99734517	     -1.74545602	    -25.17324631	     -9.03964657	    -15.76846161	    -10.14861548	    -59.57079483	    -24.62883379	     -0.14557499	     73.45799169	      0.00000000	      0.00000000	      0.00000000
      4.51000000	     94.42354840	     20.78535004	    -93.75617202	      0.35927614	      0.29025048	      1.01813834	     -0.70247300	    -13.98200999	      0.35170189	    -52.90402502	    -34.00573795	     -1.74545602	    -25.17324631	     -9.03171402	    -15.76967778	    -10.14866650	    -59.57344834	    -24.62601209	     -0.14557499	     73.45799169	      0.00000000	      0.00000000	      0.00000000
      4.52000000	     94.42306739	     20.78689818	    -93.75552416	      0.35926772	      0.29024541	      1.01813055	     -0.69707703	    -13.97984523	      0.34772128	    -52.89966164	    -34.01563046	     -1.74545602	    -25.17324631	     -9.02606287	    -15.77023694	    -10.14842906	    -59.57479716	    -24.62374198	     -0.14557499	     73.45799169	      0.00000000	      0.00000000	      0.00000000
      4.53000000	     94.42331348	     20.78648580	    -93.75469800	      0.35926267	      0.29023948	      1.01812855	     -0.69243752	    -13.97845482	      0.34246880	    -52.90172833	    -34.02496448	     -1.74545602	    -25.17324631	     -9.02328418	    -15.76997022	    -10.14768860	    -59.57453209	    -24.62268061	     -0.14557499	     73.45799169	      0.00000000	      0.00000000	      0.00000000
      4.54000000	     94.42415056	     20.78357592	    -93.75384546	      0.35925581	      0.29023497	      1.01813198	     -0.68906397	    -13.97783116	      0.33628915	    -52.90878030	    -34.03188440	     -1.74545602	    -25.17324631	     -9.02346097	    -15.76895376	    -10.14638068	    -59.57234486	    -24.62319607	     -0.14557499	     73.45799169	      0.00000000	      0.00000000	      0.00000000
      4.55000000	     94.42580134	     20.77778834	    -93.75296890	      0.35923674	      0.29023199	      1.01813698	     -0.68744760	    -13.97775935	      0.32972931	    -52.91879892	    -34.03512475	     -1.74545602	    -25.17324631	     -9.02628055	    -15.76730333	    -10.14463821	    -59.56807088	    -24.62526297	     -0.14557499	     73.45799169	      0.00000000	      0.00000000	      0.00000000
      4.56000000	     94.42819867	     20.76952844	    -93.75195956	      0.35920431	      0.29022798	      1.01813999	     -0.68831041	    -13.97824843	      0.32356703	    -52.92980624	    -34.03424633	     -1.74545602	    -25.17324631	     -9.03120029	    -15.76511905	    -10.14273394	    -59.56184465	    -24.62848028	     -0.14557499	     73.45799169	      0.00000000	      0.00000000	      0.00000000
